<svg xmlns="http://www.w3.org/2000/svg" xmlns:xlink="http://www.w3.org/1999/xlink" version="1.1" x="0px" y="0px" viewBox="0 0 90.275 108.82125" enable-background="new 0 0 90.275 87.057" xml:space="preserve"><g><g><g><path fill="#000000" d="M88.275,38.493h-1.518C84.26,16.826,65.864,0,43.529,0C19.488,0,0.001,19.488,0,43.528     c0.001,24.04,19.488,43.527,43.529,43.529c22.503-0.002,41.016-17.079,43.29-38.981h1.456c1.1,0,2-0.9,2-2v-5.583     C90.275,39.393,89.375,38.493,88.275,38.493z M43.529,83.354c-21.994,0-39.825-17.831-39.825-39.826     c0-21.995,17.831-39.825,39.825-39.825c21.996,0,39.826,17.83,39.826,39.825C83.354,65.523,65.524,83.354,43.529,83.354z"/></g></g><g><g><path fill="#000000" d="M52.56,36.317l-1.235-1.235L29.275,58.287c-0.481-0.368-1.075-0.596-1.728-0.596     c-1.579,0-2.859,1.279-2.859,2.858s1.28,2.859,2.859,2.859c1.579,0,2.858-1.28,2.858-2.859c0-0.59-0.179-1.139-0.485-1.594     L52.56,36.317z"/></g><g><path fill="#000000" stroke="#1B171B" d="M52.56,36.317l-1.235-1.235L29.275,58.287c-0.481-0.368-1.075-0.596-1.728-0.596     c-1.579,0-2.859,1.279-2.859,2.858s1.28,2.859,2.859,2.859c1.579,0,2.858-1.28,2.858-2.859c0-0.59-0.179-1.139-0.485-1.594     L52.56,36.317z"/></g></g><polygon fill="#000000" points="24.75,29.427 22.876,32.338 49.728,50.897 52.106,47.168  "/><polygon fill="#000000" points="35.993,47.166 70.557,23.128 71.984,25.207 38.072,50.155  "/><g><g><path fill="#000000" d="M41.838,79.65h3.119v-8.717h-3.119V79.65z M41.838,17.671h3.119V8.954h-3.119V17.671z M16.767,41.963     H8.05v3.119h8.717V41.963z M70.029,41.963v3.119h8.718v-3.119H70.029z M12.561,26.174l7.402,4.604l1.647-2.648l-7.402-4.604     L12.561,26.174z M65.189,58.912l7.4,4.606l1.647-2.65l-7.402-4.603L65.189,58.912z M24.773,13.438l4.258,7.606l2.722-1.523     l-4.258-7.606L24.773,13.438z M55.046,67.521l4.258,7.608l2.721-1.524l-4.258-7.606L55.046,67.521z M55.719,19.859l2.677,1.599     l4.47-7.483l-2.676-1.599L55.719,19.859z M23.933,73.068l2.677,1.599l4.47-7.483l-2.676-1.599L23.933,73.068z M74.751,27.121     l-1.564-2.697l-7.538,4.377l1.565,2.697L74.751,27.121z M12.046,59.921l1.566,2.696l7.539-4.376l-1.565-2.695L12.046,59.921z"/></g></g></g><text x="0" y="102.057" fill="#000000" font-size="5px" font-weight="bold" font-family="'Helvetica Neue', Helvetica, Arial-Unicode, Arial, Sans-serif">Created by Nhung Tang</text><text x="0" y="107.057" fill="#000000" font-size="5px" font-weight="bold" font-family="'Helvetica Neue', Helvetica, Arial-Unicode, Arial, Sans-serif">from the Noun Project</text></svg>