<?xml version="1.0" encoding="UTF-8"?>
<svg width="131px" height="85px" viewBox="0 0 131 85" version="1.1" xmlns="http://www.w3.org/2000/svg" xmlns:xlink="http://www.w3.org/1999/xlink">
    <!-- Generator: Sketch 46.1 (44463) - http://www.bohemiancoding.com/sketch -->
    <title>operations</title>
    <desc>Created with Sketch.</desc>
    <defs></defs>
    <g id="Page-1" stroke="none" stroke-width="1" fill="none" fill-rule="evenodd">
        <g id="operations" transform="translate(-4.000000, -3.000000)">
            <g id="tickets" transform="translate(44.515685, 52.080347) rotate(7.000000) translate(-44.515685, -52.080347) translate(4.515685, 12.580347)">
                <g id="Group">
                    <path d="M31.4,28 C32,28 32.4,27.6 32.4,27 L32.4,23.8 C32.4,23.2 32,22.8 31.4,22.8 C30.8,22.8 30.4,23.2 30.4,23.8 L30.4,27 C30.4,27.6 30.9,28 31.4,28 Z" id="Shape" fill="#000000" fill-rule="nonzero"></path>
                    <path d="M31.4,20.8 C32,20.8 32.4,20.4 32.4,19.8 L32.4,16.6 C32.4,16 32,15.6 31.4,15.6 C30.8,15.6 30.4,16 30.4,16.6 L30.4,19.8 C30.4,20.3 30.9,20.8 31.4,20.8 Z" id="Shape" fill="#000000" fill-rule="nonzero"></path>
                    <path d="M31.4,13.5 C32,13.5 32.4,13.1 32.4,12.5 L32.4,9.3 C32.4,8.7 32,8.3 31.4,8.3 C30.8,8.3 30.4,8.7 30.4,9.3 L30.4,12.5 C30.4,13.1 30.9,13.5 31.4,13.5 Z" id="Shape" fill="#000000" fill-rule="nonzero"></path>
                    <path d="M72.9,36.4 L74.7,36.4 C75.3,36.4 75.7,36 75.7,35.4 L75.7,1.6 C75.7,1 75.3,0.6 74.7,0.6 L5.3,0.6 C4.7,0.6 4.3,1 4.3,1.6 L4.3,35.4 C4.3,36 4.7,36.4 5.3,36.4 L26.3,36.4 L1.4,45.2 C0.9,45.4 0.6,46 0.8,46.5 L12,78.3 C12.1,78.5 12.3,78.8 12.5,78.9 C12.6,79 12.8,79 12.9,79 C13,79 13.1,79 13.2,78.9 L78.6,55.7 C79.1,55.5 79.4,54.9 79.2,54.4 L72.9,36.4 Z M6.3,2.6 L30.4,2.6 L30.4,5.2 C30.4,5.8 30.8,6.2 31.4,6.2 C32,6.2 32.4,5.8 32.4,5.2 L32.4,2.6 L73.7,2.6 L73.7,34.4 L72.2,34.4 L68,22.7 C67.9,22.5 67.7,22.2 67.5,22.1 C67.2,22 67,22 66.7,22 L32.4,34.2 L32.4,31.1 C32.4,30.5 32,30.1 31.4,30.1 C30.8,30.1 30.4,30.5 30.4,31.1 L30.4,34.3 L30.4,34.4 L6.3,34.4 L6.3,2.6 Z M37.5,68.2 L37.5,67.9 L36.4,64.9 C36.2,64.4 35.6,64.1 35.1,64.3 C34.6,64.5 34.3,65.1 34.5,65.6 L35.6,68.6 C35.6,68.7 35.7,68.8 35.8,68.9 L13.6,76.8 L2.9,46.8 L25,38.9 L25.8,41.2 C25.9,41.6 26.3,41.9 26.7,41.9 C26.8,41.9 26.9,41.9 27,41.8 C27.5,41.6 27.8,41 27.6,40.5 L27,38.3 L66.5,24.3 L77.1,54.2 L37.5,68.2 Z" id="Shape" fill="#000000" fill-rule="nonzero"></path>
                    <path d="M34,58.1 C33.8,57.6 33.2,57.3 32.7,57.5 C32.2,57.7 31.9,58.3 32.1,58.8 L33.2,61.8 C33.3,62.2 33.7,62.5 34.1,62.5 C34.2,62.5 34.3,62.5 34.4,62.4 C34.9,62.2 35.2,61.6 35,61.1 L34,58.1 Z" id="Shape" fill="#000000" fill-rule="nonzero"></path>
                    <path d="M32.6,54.2 L31.5,51.2 C31.3,50.7 30.7,50.4 30.2,50.6 C29.7,50.8 29.4,51.4 29.6,51.9 L30.7,54.9 C30.8,55.3 31.2,55.6 31.6,55.6 C31.7,55.6 31.8,55.6 31.9,55.5 C32.5,55.3 32.8,54.7 32.6,54.2 Z" id="Shape" fill="#000000" fill-rule="nonzero"></path>
                    <path d="M28.3,48 C28.4,48.4 28.8,48.7 29.2,48.7 C29.3,48.7 29.4,48.7 29.5,48.6 C30,48.4 30.3,47.8 30.1,47.3 L29,44.3 C28.8,43.8 28.2,43.5 27.7,43.7 C27.2,43.9 26.9,44.5 27.1,45 L28.3,48 Z" id="Shape" fill="#000000" fill-rule="nonzero"></path>
                    <path d="M55.8,52 C55.6,51.5 55,51.2 54.5,51.4 L46.2,54.3 C45.7,54.5 45.4,55.1 45.6,55.6 C45.7,56 46.1,56.3 46.5,56.3 C46.6,56.3 46.7,56.3 46.8,56.2 L55.1,53.3 C55.7,53.1 56,52.5 55.8,52 Z" id="Shape" fill="#000000" fill-rule="nonzero"></path>
                    <path d="M55.7,22.8 L55.7,22.8 L46.9,22.8 C46.3,22.8 45.9,23.3 45.9,23.8 C45.9,24.4 46.4,24.8 46.9,24.8 L46.9,24.8 L55.7,24.8 C56.3,24.8 56.7,24.3 56.7,23.8 C56.7,23.2 56.3,22.8 55.7,22.8 Z" id="Shape" fill="#000000" fill-rule="nonzero"></path>
                    <path d="M65.7,37.8 L36.2,48.2 C35.7,48.4 35.4,49 35.6,49.5 C35.7,49.9 36.1,50.2 36.5,50.2 C36.6,50.2 36.7,50.2 36.8,50.1 L66.3,39.6 C66.8,39.4 67.1,38.8 66.9,38.3 C66.8,37.9 66.3,37.6 65.7,37.8 Z" id="Shape" fill="#000000" fill-rule="nonzero"></path>
                    <path d="M37.4,17.6 L68.7,17.6 C69.3,17.6 69.7,17.2 69.7,16.6 C69.7,16 69.3,15.6 68.7,15.6 L37.4,15.6 C36.8,15.6 36.4,16 36.4,16.6 C36.4,17.2 36.8,17.6 37.4,17.6 Z" id="Shape" fill="#000000" fill-rule="nonzero"></path>
                    <path d="M59.4,50.7 C59.5,51.1 59.9,51.4 60.3,51.4 C60.4,51.4 60.5,51.4 60.6,51.3 L68.9,48.4 C69.4,48.2 69.7,47.6 69.5,47.1 C69.3,46.6 68.7,46.3 68.2,46.5 L60,49.4 C59.5,49.6 59.3,50.2 59.4,50.7 Z" id="Shape" fill="#000000" fill-rule="nonzero"></path>
                    <path d="M56.1,55.8 L47.8,58.7 C47.3,58.9 47,59.5 47.2,60 C47.3,60.4 47.7,60.7 48.1,60.7 C48.2,60.7 48.3,60.7 48.4,60.6 L56.7,57.7 C57.2,57.5 57.5,56.9 57.3,56.4 C57.2,55.9 56.6,55.6 56.1,55.8 Z" id="Shape" fill="#000000" fill-rule="nonzero"></path>
                    <path d="M61,55.1 C61.1,55.5 61.5,55.8 61.9,55.8 C62,55.8 62.1,55.8 62.2,55.7 L70.5,52.8 C71,52.6 71.3,52 71.1,51.5 C70.9,51 70.3,50.7 69.8,50.9 L61.5,53.8 C61.1,54 60.8,54.6 61,55.1 Z" id="Shape" fill="#000000" fill-rule="nonzero"></path>
                    <circle id="Oval" fill="#D0021B" fill-rule="nonzero" transform="translate(17.313650, 63.687010) rotate(-20.053105) translate(-17.313650, -63.687010) " cx="17.31365" cy="63.68701" r="1.00002638"></circle>
                    <circle id="Oval" fill="#D0021B" fill-rule="nonzero" transform="translate(24.985120, 60.795320) rotate(-20.053105) translate(-24.985120, -60.795320) " cx="24.98512" cy="60.79532" r="1.00002638"></circle>
                    <path d="M16,52.1 L18.4,51.2 C18.7,51.1 18.9,50.7 18.8,50.4 C18.7,50 18.4,49.9 18,50 L15.6,50.9 C15.3,51 15.1,51.4 15.2,51.7 C15.3,52 15.7,52.2 16,52.1 Z" id="Shape" fill="#4A90E2" fill-rule="nonzero"></path>
                    <path d="M30.1,64.7 L29.1,64.1 C29.5,63.9 30,63.5 30.3,62.9 C30.5,62.5 30.7,61.8 30.4,60.9 L25.9,49 C25.9,48.9 25.5,47.7 24,46.9 C22.1,45.9 19.3,46.1 15.7,47.4 C12.1,48.7 9.8,50.4 9,52.4 C8.4,53.9 8.9,55.1 8.9,55.1 L13.4,67.4 C13.6,68 14,68.4 14.6,68.7 C14.9,68.8 15.2,68.9 15.6,68.9 C15.8,68.9 16.1,68.9 16.3,68.8 L15.9,69.9 C15.7,70.4 16,71 16.5,71.2 L16.8,71.2 C17.2,71.2 17.6,70.9 17.8,70.5 L18.7,67.9 L26.8,65 L29.1,66.4 C29.3,66.5 29.4,66.5 29.6,66.5 C29.9,66.5 30.3,66.3 30.5,66 C30.7,65.6 30.5,65 30.1,64.7 Z M11.5,56.5 L24.7,51.7 L26.2,55.9 L13,60.7 L11.5,56.5 Z M10.9,53.1 C11.3,52.1 12.6,50.7 16.4,49.3 C18.5,48.5 20,48.3 21.1,48.3 C22,48.3 22.6,48.5 23,48.7 C23.8,49.1 23.9,49.6 24,49.6 L24.1,49.8 L10.9,54.6 L10.8,54.3 C10.7,54.3 10.5,53.8 10.9,53.1 Z M15.4,66.9 L15.3,66.8 L13.8,62.6 L27,57.7 L28.4,61.5 L28.4,61.5 C28.5,61.8 28.4,61.9 28.4,61.9 C28.3,62.1 28,62.3 27.8,62.3 L15.6,66.7 C15.5,66.9 15.4,66.9 15.4,66.9 Z" id="Shape" fill="#000000" fill-rule="nonzero"></path>
                    <path d="M26.2,9.4 C24.8,7.9 22.1,7.1 18.4,7.1 L18.3,7.1 C14.4,7.1 11.8,7.9 10.3,9.5 C9.2,10.7 9.3,12 9.3,12 L9.4,25.1 C9.4,25.7 9.6,26.3 10.1,26.7 C10.5,27.1 11.1,27.3 11.6,27.3 L10.9,28.2 C10.6,28.6 10.6,29.3 11.1,29.6 C11.3,29.7 11.5,29.8 11.7,29.8 C12,29.8 12.3,29.7 12.5,29.4 L14.2,27.2 L22.8,27.2 L24.5,29.3 C24.7,29.5 25,29.7 25.3,29.7 C25.5,29.7 25.7,29.6 25.9,29.5 C26.3,29.2 26.4,28.5 26.1,28.1 L25.3,27.2 C25.7,27.1 26.3,26.9 26.8,26.5 C27.1,26.2 27.5,25.6 27.5,24.6 L27.3,12 C27.3,11.9 27.3,10.6 26.2,9.4 Z M11.2,14.3 L25.3,14.2 L25.3,18.6 L11.2,18.7 L11.2,14.3 Z M11.7,10.9 C12.3,10.3 13.9,9.2 18.2,9.1 L18.3,9.1 C22.2,9.1 23.9,10 24.6,10.7 C25.2,11.3 25.2,11.8 25.2,11.9 L25.2,12.2 L11.1,12.3 L11.1,12 C11.2,11.9 11.2,11.4 11.7,10.9 Z M25.3,24.7 C25.3,25 25.2,25.1 25.2,25.1 C25,25.3 24.7,25.3 24.5,25.3 L11.5,25.4 C11.4,25.4 11.3,25.4 11.3,25.3 C11.3,25.3 11.2,25.2 11.2,25.1 L11.2,20.7 L25.3,20.6 L25.3,24.7 L25.3,24.7 Z" id="Shape" fill="#000000" fill-rule="nonzero"></path>
                    <polygon id="Shape-path" fill-opacity="0.776013361" fill="#63E5C9" points="11.5 56.5 24.7 51.7 26.2 55.9 13 60.7"></polygon>
                    <polygon id="Shape-path" fill-opacity="0.776013361" fill="#63E5C9" points="11.2 14.3 25.3 14.2 25.3 18.6 11.2 18.7"></polygon>
                    <circle id="Oval" fill="#D0021B" fill-rule="nonzero" transform="translate(14.200199, 22.900357) rotate(-0.288165) translate(-14.200199, -22.900357) " cx="14.2001993" cy="22.9003572" r="1.00001265"></circle>
                    <circle id="Oval" fill="#D0021B" fill-rule="nonzero" transform="translate(22.400505, 22.900410) rotate(-0.288174) translate(-22.400505, -22.900410) " cx="22.4005045" cy="22.9004104" r="1.00001265"></circle>
                    <path d="M16.9,11.6 L19.5,11.6 C19.9,11.6 20.1,11.3 20.1,11 C20.1,10.6 19.8,10.4 19.5,10.4 L16.9,10.4 C16.5,10.4 16.3,10.7 16.3,11 C16.3,11.3 16.6,11.6 16.9,11.6 Z" id="Shape" fill="#4A90E2" fill-rule="nonzero"></path>
                </g>
            </g>
            <g id="clock" transform="translate(101.000000, 37.000000) rotate(7.000000) translate(-101.000000, -37.000000) translate(67.000000, 4.000000)" fill-rule="nonzero">
                <g id="Group">
                    <path d="M65.9637363,28.86975 L64.8294066,28.86975 C62.9635165,12.6195 49.2170549,0 32.5271648,0 C14.5624615,0 0.000747252747,14.616 0,32.646 C0.000747252747,50.676 14.5624615,65.29125 32.5271648,65.29275 C49.3425934,65.29125 63.1764835,52.4835 64.8757363,36.057 L65.9637363,36.057 C66.7857143,36.057 67.4582418,35.382 67.4582418,34.557 L67.4582418,30.36975 C67.4582418,29.54475 66.7857143,28.86975 65.9637363,28.86975 Z" id="Shape" fill="#FFFFFF"></path>
                    <path d="M65.9637363,28.86975 L64.8294066,28.86975 C62.9635165,12.6195 49.2170549,0 32.5271648,0 C14.5624615,0 0.000747252747,14.616 0,32.646 C0.000747252747,50.676 14.5624615,65.29125 32.5271648,65.29275 C49.3425934,65.29125 63.1764835,52.4835 64.8757363,36.057 L65.9637363,36.057 C66.7857143,36.057 67.4582418,35.382 67.4582418,34.557 L67.4582418,30.36975 C67.4582418,29.54475 66.7857143,28.86975 65.9637363,28.86975 Z M32.5271648,62.5155 C16.0920879,62.5155 2.76782418,49.14225 2.76782418,32.646 C2.76782418,16.14975 16.0920879,2.77725 32.5271648,2.77725 C48.9637363,2.77725 62.2872527,16.14975 62.2872527,32.646 C62.2865055,49.14225 48.962989,62.5155 32.5271648,62.5155 Z" id="Shape" fill="#000000"></path>
                    <polygon id="Shape" fill="#000000" points="18.4945055 22.07025 17.0941538 24.2535 37.1593846 38.17275 38.9363516 35.376"></polygon>
                    <polygon id="Shape" fill="#000000" points="26.8958681 35.3745 52.7239121 17.346 53.7902418 18.90525 28.4494066 37.61625"></polygon>
                    <g id="Shape" transform="translate(17.934066, 26.250000)">
                        <path d="M21.3415385,0.98775 L20.4186813,0.0615 L3.94175824,17.46525 C3.58232967,17.18925 3.13846154,17.01825 2.65050549,17.01825 C1.47059341,17.01825 0.51410989,17.9775 0.51410989,19.16175 C0.51410989,20.346 1.47059341,21.306 2.65050549,21.306 C3.83041758,21.306 4.78615385,20.346 4.78615385,19.16175 C4.78615385,18.71925 4.6523956,18.3075 4.42373626,17.96625 L21.3415385,0.98775 Z" fill="#000000"></path>
                        <path d="M21.3415385,0.98775 L20.4186813,0.0615 L3.94175824,17.46525 C3.58232967,17.18925 3.13846154,17.01825 2.65050549,17.01825 C1.47059341,17.01825 0.51410989,17.9775 0.51410989,19.16175 C0.51410989,20.346 1.47059341,21.306 2.65050549,21.306 C3.83041758,21.306 4.78615385,20.346 4.78615385,19.16175 C4.78615385,18.71925 4.6523956,18.3075 4.42373626,17.96625 L21.3415385,0.98775 Z" stroke="#D03602" fill="#D03602"></path>
                    </g>
                    <path d="M31.2635604,59.7375 L33.5942418,59.7375 L33.5942418,53.19975 L31.2635604,53.19975 L31.2635604,59.7375 Z M31.2635604,13.25325 L33.5942418,13.25325 L33.5942418,6.7155 L31.2635604,6.7155 L31.2635604,13.25325 Z M12.5291868,31.47225 L6.01538462,31.47225 L6.01538462,33.8115 L12.5291868,33.8115 L12.5291868,31.47225 L12.5291868,31.47225 Z M52.3293626,31.47225 L52.3293626,33.8115 L58.8439121,33.8115 L58.8439121,31.47225 L52.3293626,31.47225 Z M9.38624176,19.6305 L14.9174066,23.0835 L16.1481319,21.0975 L10.616967,17.6445 L9.38624176,19.6305 Z M48.7126593,44.184 L54.2423297,47.6385 L55.4730549,45.651 L49.9418901,42.19875 L48.7126593,44.184 Z M18.5116923,10.0785 L21.6934945,15.783 L23.7275165,14.64075 L20.5457143,8.93625 L18.5116923,10.0785 Z M41.1332747,50.64075 L44.3150769,56.34675 L46.3483516,55.20375 L43.1665495,49.49925 L41.1332747,50.64075 Z M41.6361758,14.89425 L43.6365714,16.0935 L46.9767912,10.48125 L44.9771429,9.282 L41.6361758,14.89425 Z M17.884,54.801 L19.8843956,56.00025 L23.2246154,50.388 L21.224967,49.18875 L17.884,54.801 Z M55.8578901,20.34075 L54.6891868,18.318 L49.0563956,21.60075 L50.2258462,23.6235 L55.8578901,20.34075 Z M9.00140659,44.94075 L10.1716044,46.96275 L15.8051429,43.68075 L14.6356923,41.6595 L9.00140659,44.94075 Z" id="Shape" fill="#000000"></path>
                </g>
            </g>
        </g>
    </g>
</svg>