<?xml version="1.0" encoding="UTF-8"?>
<svg width="331px" height="332px" viewBox="0 0 331 332" version="1.1" xmlns="http://www.w3.org/2000/svg" xmlns:xlink="http://www.w3.org/1999/xlink">
    <!-- Generator: Sketch 46.1 (44463) - http://www.bohemiancoding.com/sketch -->
    <title>multi_modal</title>
    <desc>Created with Sketch.</desc>
    <defs></defs>
    <g id="Page-1" stroke="none" stroke-width="1" fill="none" fill-rule="evenodd">
        <g id="multi_modal" fill-rule="nonzero" fill="#009BE0">
            <path d="M131.66,270.78 C128.677358,270.780099 125.711406,271.224992 122.86,272.1 L112.14,250.67 L123.57,227.81 C123.57,227.81 123.57,227.72 123.62,227.67 C123.692545,227.503575 123.755973,227.333323 123.81,227.16 C123.86,227.01 123.91,226.87 123.95,226.72 C123.99,226.57 124,226.42 124.02,226.26 C124.046423,226.081037 124.063114,225.900772 124.07,225.72 C124.07,225.72 124.07,225.62 124.07,225.57 C124.07,225.52 124.07,225.38 124.07,225.28 C124.063114,225.099228 124.046423,224.918963 124.02,224.74 C124.02,224.58 123.95,224.43 123.91,224.27 C123.87,224.11 123.82,223.96 123.77,223.81 C123.71098,223.656717 123.644228,223.506524 123.57,223.36 C123.5,223.22 123.43,223.08 123.35,222.95 C123.27,222.82 123.17,222.68 123.07,222.56 C122.97,222.44 122.87,222.3 122.76,222.18 C122.65,222.06 122.53,221.95 122.41,221.85 C122.29,221.75 122.17,221.64 122.04,221.55 C121.892041,221.445061 121.73848,221.348251 121.58,221.26 C121.49,221.26 121.42,221.15 121.33,221.1 L121.19,221.05 C121.023628,220.977324 120.853369,220.913894 120.68,220.86 C120.53,220.86 120.39,220.76 120.24,220.72 C120.09,220.68 119.93,220.67 119.77,220.64 C119.594347,220.613934 119.417429,220.597243 119.24,220.59 L119.09,220.59 L98.33,220.59 C95.5685763,220.59 93.33,222.828576 93.33,225.59 C93.33,228.351424 95.5685763,230.59 98.33,230.59 L111,230.59 L103.45,245.69 L57.19,245.69 L66.11,221.81 L70.82,221.81 C73.5814237,221.81 75.82,219.571424 75.82,216.81 C75.82,214.048576 73.5814237,211.81 70.82,211.81 L28.82,211.81 C26.0585763,211.81 23.82,214.048576 23.82,216.81 C23.82,219.571424 26.0585763,221.81 28.82,221.81 L55.44,221.81 L36.94,271.33 C21.5437617,268.340729 6.42594058,277.650481 2.16563522,292.74451 C-2.09467014,307.838538 5.92454872,323.678745 20.6116295,329.180522 C35.2987102,334.682299 51.7513863,328.009259 58.4564586,313.83104 C65.161531,299.652821 59.8809747,282.701841 46.31,274.84 L51.13,261.92 L77.21,303.54 C77.3335305,303.735938 77.4705271,303.923055 77.62,304.1 L77.73,304.21 C77.8967339,304.396602 78.0772411,304.570424 78.27,304.73 L78.42,304.85 C78.6524304,305.02803 78.9000485,305.185301 79.16,305.32 L79.22,305.32 L79.43,305.41 L79.68,305.51 L80,305.67 L80.21,305.73 L80.66,305.82 L80.8,305.82 C81.0031438,305.832415 81.2068562,305.832415 81.41,305.82 L102,305.82 C104.623543,321.588741 119.115642,332.556237 135.004063,330.79719 C150.892484,329.038144 162.634547,315.166199 161.74524,299.205456 C160.855932,283.244713 147.64549,270.763083 131.66,270.78 L131.66,270.78 Z M51.35,300.88 C51.3570388,309.217965 46.2230245,316.697249 38.4397889,319.687727 C30.6565534,322.678204 21.8353025,320.560816 16.257496,314.363254 C10.6796895,308.165691 9.49998779,299.170909 13.2909679,291.744592 C17.081948,284.318275 25.05884,279.997744 33.35,280.88 L26.54,299.12 C25.9147852,300.793789 26.2300189,302.673982 27.3669555,304.052329 C28.5038922,305.430676 30.2898041,306.097772 32.0519555,305.802329 C33.814107,305.506886 35.2847852,304.293789 35.91,302.62 L42.71,284.4 C48.1179546,288.148943 51.3458999,294.309686 51.35,300.89 L51.35,300.88 Z M113.92,276.58 C107.581949,281.217228 103.304935,288.145846 102,295.89 L89.54,295.89 L106.54,261.89 L113.92,276.58 Z M123.57,295.88 L112.21,295.88 C113.22607,291.935482 115.416021,288.392504 118.49,285.72 L123.57,295.88 Z M98.46,255.67 L80.96,290.67 L59,255.68 L98.43,255.68 L98.46,255.67 Z M131.66,321 C122.494015,320.984651 114.496931,314.776117 112.21,305.9 L131.66,305.9 C133.393641,305.899942 135.00353,305.001852 135.914286,303.526714 C136.825041,302.051575 136.906671,300.209933 136.13,298.66 L127.42,281.25 C134.937528,279.631972 142.719382,282.44477 147.465029,288.495396 C152.210676,294.546022 153.088321,302.773951 149.725728,309.689456 C146.363135,316.604961 139.349683,320.995925 131.66,321 Z" id="Shape"></path>
            <path d="M279,38 C268.639138,38 260.24,29.6008619 260.24,19.24 C260.24,8.87913809 268.639138,0.48 279,0.48 C289.360862,0.48 297.76,8.87913809 297.76,19.24 C297.748977,29.5962925 289.356293,37.9889768 279,38 Z M279,10.48 C274.161986,10.48 270.24,14.4019856 270.24,19.24 C270.24,24.0780144 274.161986,28 279,28 C283.838014,28 287.76,24.0780144 287.76,19.24 C287.732522,14.4198983 283.820177,10.5254179 279,10.52 L279,10.48 Z" id="Shape"></path>
            <path d="M319.68,96.89 C316.918576,96.89 314.68,94.6514237 314.68,91.89 C314.68,80.67 311.23,71.73 304.43,65.33 C294,55.46 278,53.55 270.2,53.23 L270.2,91.89 C270.2,94.6514237 267.961424,96.89 265.2,96.89 C262.438576,96.89 260.2,94.6514237 260.2,91.89 L260.2,48.22 C260.195229,45.5716137 262.256381,43.3788991 264.9,43.22 C266.08,43.15 293.9,41.66 311.29,58.03 C320.18,66.4 324.69,77.78 324.69,91.88 C324.692662,93.2095488 324.165679,94.4854091 323.225544,95.4255439 C322.285409,96.3656788 321.009549,96.8926618 319.68,96.89 Z" id="Shape"></path>
            <path d="M254.66,146.86 C251.898576,146.86 249.66,144.621424 249.66,141.86 C249.66,118.06 261.66,110.94 277.44,104.11 C292.92,97.39 292.51,85.37 292.51,85.24 C292.37469,82.4785763 294.503576,80.1303098 297.265,79.995 C300.026424,79.8596902 302.37469,81.9885763 302.51,84.75 C302.51,85.52 303.2,103.83 281.44,113.28 C267.54,119.28 259.67,123.62 259.67,141.86 C259.670003,143.187817 259.141846,144.461104 258.202,145.399074 C257.262154,146.337044 255.987814,146.862656 254.66,146.86 Z" id="Shape"></path>
            <path d="M223.13,89 C222.396667,89 221.646667,88.98 220.88,88.94 C218.118576,88.8046902 215.98969,86.4564237 216.125,83.695 C216.26031,80.9335763 218.608576,78.8046902 221.37,78.94 C241.07,79.94 245.37,64.77 245.76,63.03 C246.386843,60.3403734 249.075373,58.668157 251.765,59.2950002 C254.454627,59.9218434 256.126843,62.6103733 255.5,65.3 C253.58,73.7 244.37,89 223.13,89 Z" id="Shape"></path>
            <path d="M319.55,146.52 C296.88,146.52 286.01,124.89 285.55,123.97 C284.760443,122.362305 284.888557,120.45551 285.886084,118.967886 C286.88361,117.480262 288.599001,116.637814 290.386084,116.757886 C292.173167,116.877957 293.760443,117.942305 294.55,119.55 C294.67,119.79 303.23,136.55 319.55,136.55 C322.153488,136.75212 324.162992,138.923678 324.162992,141.535 C324.162992,144.146322 322.153488,146.31788 319.55,146.52 L319.55,146.52 Z" id="Shape"></path>
            <path d="M223.45,262.37 L222.94,262.37 C214.889974,262.375516 208.365516,268.899974 208.36,276.95 L208.36,277.46 C208.387532,285.494401 214.905554,291.99454 222.94,292 L223.45,292 C231.472734,291.978052 237.972536,285.482717 238,277.46 L238,276.95 C237.994521,268.911664 231.488308,262.392036 223.45,262.37 L223.45,262.37 Z M229,277.46 C229,280.541749 226.501749,283.04 223.42,283.04 L222.91,283.04 C219.828251,283.04 217.33,280.541749 217.33,277.46 L217.33,276.95 C217.33,273.868251 219.828251,271.37 222.91,271.37 L223.42,271.37 C226.501749,271.37 229,273.868251 229,276.95 L229,277.46 L229,277.46 Z" id="Shape"></path>
            <path d="M288.57,262.37 L288.06,262.37 C280.009974,262.375516 273.485516,268.899974 273.48,276.95 L273.48,277.46 C273.507532,285.494401 280.025554,291.99454 288.06,292 L288.57,292 C296.620026,291.994484 303.144484,285.470026 303.15,277.42 L303.15,276.91 C303.122468,268.875599 296.604446,262.37546 288.57,262.37 L288.57,262.37 Z M294.15,277.46 C294.15,280.541749 291.651749,283.04 288.57,283.04 L288.06,283.04 C284.978251,283.04 282.48,280.541749 282.48,277.46 L282.48,276.95 C282.48,273.868251 284.978251,271.37 288.06,271.37 L288.57,271.37 C291.651749,271.37 294.15,273.868251 294.15,276.95 L294.15,277.46 L294.15,277.46 Z" id="Shape"></path>
            <path d="M246.21,200.92 L265.3,200.92 C267.785281,200.92 269.8,198.905281 269.8,196.42 C269.8,193.934719 267.785281,191.92 265.3,191.92 L246.21,191.92 C243.724719,191.92 241.71,193.934719 241.71,196.42 C241.71,198.905281 243.724719,200.92 246.21,200.92 Z" id="Shape"></path>
            <path d="M330.65,229.16 C330.638987,221.951728 324.798272,216.111013 317.59,216.1 L312.81,216.1 C310.16581,216.099504 307.584338,216.905342 305.41,218.41 L296.31,186.09 C294.557817,179.740902 288.786433,175.339762 282.2,175.33 L229.86,175.33 C223.335552,175.344063 217.603323,179.662586 215.79,185.93 L206.32,218.41 C204.145662,216.905342 201.56419,216.099504 198.92,216.1 L194.14,216.1 C187.326918,216.261402 181.783273,221.634412 181.409014,228.439121 C181.034755,235.24383 185.955714,241.192393 192.71,242.1 C189.744739,245.105752 188.081548,249.15776 188.08,253.38 L188.08,304.01 C188.08,305.481952 188.66473,306.893616 189.705557,307.934443 C190.746384,308.97527 192.158048,309.56 193.63,309.56 L208.81,309.56 L208.81,324.76 C208.81,328.073708 211.496292,330.76 214.81,330.76 L233,330.76 C236.313708,330.76 239,328.073708 239,324.76 L239,309.6 L272,309.6 L272,324.8 C272,328.113708 274.686292,330.8 278,330.8 L296.22,330.8 C299.533708,330.8 302.22,328.113708 302.22,324.8 L302.22,309.6 L317.9,309.6 C320.96518,309.6 323.45,307.11518 323.45,304.05 L323.45,253.42 C323.448537,249.207522 321.793081,245.164045 318.84,242.16 C325.533254,241.507041 330.640643,235.885021 330.65,229.16 Z M230,321.79 L217.81,321.79 L217.81,309.61 L230,309.61 L230,321.79 Z M293.2,321.79 L281,321.79 L281,309.61 L293.19,309.61 L293.19,321.79 L293.2,321.79 Z M224.44,188.42 C225.134612,186.002036 227.344247,184.334618 229.86,184.33 L282.2,184.33 C284.745694,184.335731 286.973168,186.043188 287.64,188.5 L301.86,239 L288.5,244 L221.82,244 L209.63,239.19 L224.44,188.42 Z M190.08,229.17 C190.085497,226.930005 191.900005,225.115497 194.14,225.11 L198.92,225.11 C201.165038,225.11 202.985,226.929962 202.985,229.175 C202.985,231.420038 201.165038,233.24 198.92,233.24 L194.14,233.24 C193.060568,233.237351 192.026399,232.806006 191.265001,232.040857 C190.503602,231.275708 190.077345,230.239432 190.08,229.16 L190.08,229.17 Z M314.43,300.6 L197.08,300.6 L197.08,253.42 C197.104425,249.871362 199.741756,246.884095 203.26,246.42 L219.13,252.68 C219.767406,252.929344 220.445562,253.058193 221.13,253.06 L289.13,253.06 C289.813241,253.065271 290.491482,252.943188 291.13,252.7 L307.89,246.37 C311.602394,246.647109 314.474642,249.737282 314.48,253.46 L314.48,300.6 L314.43,300.6 Z M317.59,233.22 L312.81,233.22 C310.564962,233.22 308.745,231.400038 308.745,229.155 C308.745,226.909962 310.564962,225.09 312.81,225.09 L317.59,225.09 C319.044071,225.09 320.387688,225.865738 321.114723,227.125 C321.841759,228.384262 321.841759,229.935738 321.114723,231.195 C320.387688,232.454262 319.044071,233.23 317.59,233.23 L317.59,233.22 Z" id="Shape"></path>
            <path d="M53.55,110.83 C44.9730178,110.83 38.02,117.783018 38.02,126.36 C38.02,134.936982 44.9730178,141.89 53.55,141.89 C62.1269822,141.89 69.08,134.936982 69.08,126.36 C69.074484,117.785304 62.1246963,110.835516 53.55,110.83 Z M53.55,131.88 C50.4958653,131.88 48.02,129.404135 48.02,126.35 C48.02,123.295865 50.4958653,120.82 53.55,120.82 C56.6041347,120.82 59.08,123.295865 59.08,126.35 C59.08,129.404135 56.6041347,131.88 53.55,131.88 Z" id="Shape"></path>
            <path d="M134,110.83 C125.423018,110.83 118.47,117.783018 118.47,126.36 C118.47,134.936982 125.423018,141.89 134,141.89 C142.576982,141.89 149.53,134.936982 149.53,126.36 C149.524484,117.785304 142.574696,110.835516 134,110.83 Z M134,131.88 C130.945865,131.88 128.47,129.404135 128.47,126.35 C128.47,123.295865 130.945865,120.82 134,120.82 C137.054135,120.82 139.53,123.295865 139.53,126.35 C139.53,129.404135 137.054135,131.88 134,131.88 Z" id="Shape"></path>
            <path d="M175.24,63.72 C174.426918,63.7205792 173.616029,63.8043487 172.82,63.97 L172.82,15.53 C172.808983,7.43255048 166.24745,0.871016953 158.15,0.86 L29.87,0.86 C21.7725505,0.871016953 15.211017,7.43255048 15.2,15.53 L15.2,64 C11.69426,63.2731135 8.04745899,64.1605213 5.2676679,66.4169208 C2.4878768,68.6733202 0.869537072,72.0597087 0.86,75.64 L0.86,87.33 C0.86052964,90.9155491 2.47504215,94.3103885 5.2560565,96.5735989 C8.03707086,98.8368094 11.6891215,99.7279387 15.2,99 L15.2,146.8 C15.211017,154.89745 21.7725505,161.458983 29.87,161.47 L37.75,161.47 L37.75,178.05 C37.75,180.811424 39.9885763,183.05 42.75,183.05 L64.34,183.05 C65.6660824,183.05 66.937852,182.523216 67.8755339,181.585534 C68.8132158,180.647852 69.34,179.376082 69.34,178.05 L69.34,161.48 L118.21,161.48 L118.21,178.06 C118.21,180.821424 120.448576,183.06 123.21,183.06 L144.8,183.06 C147.561424,183.06 149.8,180.821424 149.8,178.06 L149.8,161.48 L158.14,161.48 C166.23745,161.468983 172.798983,154.90745 172.81,146.81 L172.81,99 C176.320878,99.7279387 179.972929,98.8368094 182.753943,96.5735989 C185.534958,94.3103885 187.14947,90.9155491 187.15,87.33 L187.15,75.64 C187.144496,69.0629498 181.817043,63.7310238 175.24,63.72 Z M29.87,10.86 L158.15,10.86 C160.726888,10.8655003 162.8145,12.953112 162.82,15.53 L162.82,91.23 L25.2,91.23 L25.2,15.53 C25.2055003,12.953112 27.293112,10.8655003 29.87,10.86 Z M12.78,90.25 C11.1850468,90.2080059 9.90199408,88.9249532 9.86,87.33 L9.86,75.64 C9.8424958,74.3474713 10.6797226,73.1983264 11.9154077,72.8188276 C13.1510928,72.4393288 14.489002,72.9204544 15.2,74 L15.2,88.91 C14.6669726,89.7319646 13.7595415,90.2344265 12.78,90.25 L12.78,90.25 Z M59.34,173.06 L47.75,173.06 L47.75,161.48 L59.34,161.48 L59.34,173.06 Z M139.81,173.06 L128.22,173.06 L128.22,161.48 L139.81,161.48 L139.81,173.06 Z M158.15,151.48 L29.87,151.48 C27.293112,151.4745 25.2055003,149.386888 25.2,146.81 L25.2,101.23 L162.82,101.23 L162.82,146.8 C162.820006,149.380792 160.730787,151.474485 158.15,151.48 Z M178.15,87.33 C178.15399,88.6169322 177.312179,89.7536524 176.080025,90.1251446 C174.847871,90.4966368 173.518028,90.0146661 172.81,88.94 L172.81,74 C173.518028,72.9253339 174.847871,72.4433632 176.080025,72.8148554 C177.312179,73.1863476 178.15399,74.3230678 178.15,75.61 L178.15,87.3 L178.15,87.33 Z" id="Shape"></path>
        </g>
    </g>
</svg>