<svg xmlns="http://www.w3.org/2000/svg" xmlns:xlink="http://www.w3.org/1999/xlink" version="1.1" x="0px" y="0px" viewBox="0 0 100 125" style="enable-background:new 0 0 100 100;" xml:space="preserve"><style type="text/css">
	.st0{fill:none;stroke:#000000;stroke-width:2;stroke-linecap:round;stroke-linejoin:round;stroke-miterlimit:10;}
	.st1{fill:none;stroke:#000000;stroke-width:2;stroke-miterlimit:10;}
</style><path d="M42.4,39c0.6,0,1-0.4,1-1v-3.2c0-0.6-0.4-1-1-1s-1,0.4-1,1V38C41.4,38.6,41.9,39,42.4,39z"/><path d="M42.4,31.8c0.6,0,1-0.4,1-1v-3.2c0-0.6-0.4-1-1-1s-1,0.4-1,1v3.2C41.4,31.3,41.9,31.8,42.4,31.8z"/><path d="M42.4,24.5c0.6,0,1-0.4,1-1v-3.2c0-0.6-0.4-1-1-1s-1,0.4-1,1v3.2C41.4,24.1,41.9,24.5,42.4,24.5z"/><path d="M83.9,47.4h1.8c0.6,0,1-0.4,1-1V12.6c0-0.6-0.4-1-1-1H16.3c-0.6,0-1,0.4-1,1v33.8c0,0.6,0.4,1,1,1h21l-24.9,8.8  c-0.5,0.2-0.8,0.8-0.6,1.3L23,89.3c0.1,0.2,0.3,0.5,0.5,0.6c0.1,0.1,0.3,0.1,0.4,0.1c0.1,0,0.2,0,0.3-0.1l65.4-23.2  c0.5-0.2,0.8-0.8,0.6-1.3L83.9,47.4z M17.3,13.6h24.1v2.6c0,0.6,0.4,1,1,1s1-0.4,1-1v-2.6h41.3v31.8h-1.5L79,33.7  c-0.1-0.2-0.3-0.5-0.5-0.6C78.2,33,78,33,77.7,33L43.4,45.2v-3.1c0-0.6-0.4-1-1-1s-1,0.4-1,1v3.2c0,0,0,0.1,0,0.1H17.3V13.6z   M48.5,79.2c0-0.1,0-0.2,0-0.3l-1.1-3c-0.2-0.5-0.8-0.8-1.3-0.6c-0.5,0.2-0.8,0.8-0.6,1.3l1.1,3c0,0.1,0.1,0.2,0.2,0.3l-22.2,7.9  L13.9,57.8l22.1-7.9l0.8,2.3c0.1,0.4,0.5,0.7,0.9,0.7c0.1,0,0.2,0,0.3-0.1c0.5-0.2,0.8-0.8,0.6-1.3L38,49.3l39.5-14l10.6,29.9  L48.5,79.2z"/><path d="M45,69.1c-0.2-0.5-0.8-0.8-1.3-0.6c-0.5,0.2-0.8,0.8-0.6,1.3l1.1,3c0.1,0.4,0.5,0.7,0.9,0.7c0.1,0,0.2,0,0.3-0.1  c0.5-0.2,0.8-0.8,0.6-1.3L45,69.1z"/><path d="M43.6,65.2l-1.1-3c-0.2-0.5-0.8-0.8-1.3-0.6c-0.5,0.2-0.8,0.8-0.6,1.3l1.1,3c0.1,0.4,0.5,0.7,0.9,0.7c0.1,0,0.2,0,0.3-0.1  C43.5,66.3,43.8,65.7,43.6,65.2z"/><path d="M39.3,59c0.1,0.4,0.5,0.7,0.9,0.7c0.1,0,0.2,0,0.3-0.1c0.5-0.2,0.8-0.8,0.6-1.3l-1.1-3c-0.2-0.5-0.8-0.8-1.3-0.6  c-0.5,0.2-0.8,0.8-0.6,1.3L39.3,59z"/><path d="M66.8,63c-0.2-0.5-0.8-0.8-1.3-0.6l-8.3,2.9c-0.5,0.2-0.8,0.8-0.6,1.3c0.1,0.4,0.5,0.7,0.9,0.7c0.1,0,0.2,0,0.3-0.1l8.3-2.9  C66.7,64.1,67,63.5,66.8,63z"/><path d="M66.7,33.8C66.7,33.8,66.7,33.8,66.7,33.8l-8.8,0c-0.6,0-1,0.5-1,1c0,0.6,0.5,1,1,1c0,0,0,0,0,0l8.8,0c0.6,0,1-0.5,1-1  C67.7,34.2,67.3,33.8,66.7,33.8z"/><path d="M76.7,48.8L47.2,59.2c-0.5,0.2-0.8,0.8-0.6,1.3c0.1,0.4,0.5,0.7,0.9,0.7c0.1,0,0.2,0,0.3-0.1l29.5-10.5  c0.5-0.2,0.8-0.8,0.6-1.3C77.8,48.9,77.3,48.6,76.7,48.8z"/><path d="M48.4,28.6h31.3c0.6,0,1-0.4,1-1s-0.4-1-1-1H48.4c-0.6,0-1,0.4-1,1S47.8,28.6,48.4,28.6z"/><path d="M70.4,61.7c0.1,0.4,0.5,0.7,0.9,0.7c0.1,0,0.2,0,0.3-0.1l8.3-2.9c0.5-0.2,0.8-0.8,0.6-1.3c-0.2-0.5-0.8-0.8-1.3-0.6L71,60.4  C70.5,60.6,70.3,61.2,70.4,61.7z"/><path d="M67.1,66.8l-8.3,2.9c-0.5,0.2-0.8,0.8-0.6,1.3c0.1,0.4,0.5,0.7,0.9,0.7c0.1,0,0.2,0,0.3-0.1l8.3-2.9  c0.5-0.2,0.8-0.8,0.6-1.3C68.2,66.9,67.6,66.6,67.1,66.8z"/><path d="M72,66.1c0.1,0.4,0.5,0.7,0.9,0.7c0.1,0,0.2,0,0.3-0.1l8.3-2.9c0.5-0.2,0.8-0.8,0.6-1.3c-0.2-0.5-0.8-0.8-1.3-0.6l-8.3,2.9  C72.1,65,71.8,65.6,72,66.1z"/><ellipse transform="matrix(0.9394 -0.3429 0.3429 0.9394 -23.886 14.2179)" cx="28.3" cy="74.7" rx="1" ry="1"/><ellipse transform="matrix(0.9394 -0.3429 0.3429 0.9394 -22.4535 16.6908)" cx="36" cy="71.8" rx="1" ry="1"/><path d="M27,63.1l2.4-0.9c0.3-0.1,0.5-0.5,0.4-0.8C29.7,61,29.4,60.9,29,61l-2.4,0.9c-0.3,0.1-0.5,0.5-0.4,0.8  C26.3,63,26.7,63.2,27,63.1z"/><path d="M41.1,75.7l-1-0.6c0.4-0.2,0.9-0.6,1.2-1.2c0.2-0.4,0.4-1.1,0.1-2L36.9,60c0-0.1-0.4-1.3-1.9-2.1c-1.9-1-4.7-0.8-8.3,0.5  c-3.6,1.3-5.9,3-6.7,5c-0.6,1.5-0.1,2.7-0.1,2.7l4.5,12.3c0.2,0.6,0.6,1,1.2,1.3c0.3,0.1,0.6,0.2,1,0.2c0.2,0,0.5,0,0.7-0.1  l-0.4,1.1c-0.2,0.5,0.1,1.1,0.6,1.3c0.1,0,0.2,0,0.3,0c0.4,0,0.8-0.3,1-0.7l0.9-2.6l8.1-2.9l2.3,1.4c0.2,0.1,0.3,0.1,0.5,0.1  c0.3,0,0.7-0.2,0.9-0.5C41.7,76.6,41.5,76,41.1,75.7z M22.5,67.5l13.2-4.8l1.5,4.2l-13.2,4.8L22.5,67.5z M21.9,64.1  c0.4-1,1.7-2.4,5.5-3.8c2.1-0.8,3.6-1,4.7-1c0.9,0,1.5,0.2,1.9,0.4c0.8,0.4,0.9,0.9,1,0.9l0.1,0.2l-13.2,4.8l-0.1-0.3  C21.7,65.3,21.5,64.8,21.9,64.1z M26.4,77.9c0,0-0.1-0.1-0.1-0.1l-1.5-4.2L38,68.7l1.4,3.8v0c0.1,0.3,0,0.4,0,0.4  c-0.1,0.2-0.4,0.4-0.6,0.4l-12.2,4.4C26.5,77.9,26.4,77.9,26.4,77.9z"/><path d="M37.2,20.4c-1.4-1.5-4.1-2.3-7.8-2.3c0,0-0.1,0-0.1,0c-3.9,0-6.5,0.8-8,2.4c-1.1,1.2-1,2.5-1,2.5l0.1,13.1  c0,0.6,0.2,1.2,0.7,1.6c0.4,0.4,1,0.6,1.5,0.6l-0.7,0.9c-0.3,0.4-0.3,1.1,0.2,1.4c0.2,0.1,0.4,0.2,0.6,0.2c0.3,0,0.6-0.1,0.8-0.4  l1.7-2.2l8.6,0l1.7,2.1c0.2,0.2,0.5,0.4,0.8,0.4c0.2,0,0.4-0.1,0.6-0.2c0.4-0.3,0.5-1,0.2-1.4l-0.8-0.9c0.4-0.1,1-0.3,1.5-0.7  c0.3-0.3,0.7-0.9,0.7-1.9L38.3,23C38.3,22.9,38.3,21.6,37.2,20.4z M22.2,25.3l14.1-0.1l0,4.4l-14.1,0.1L22.2,25.3z M22.7,21.9  c0.6-0.6,2.2-1.7,6.5-1.8c0,0,0.1,0,0.1,0c3.9,0,5.6,0.9,6.3,1.6c0.6,0.6,0.6,1.1,0.6,1.2l0,0.3l-14.1,0.1l0-0.3  C22.2,22.9,22.2,22.4,22.7,21.9z M36.3,35.7c0,0.3-0.1,0.4-0.1,0.4c-0.2,0.2-0.5,0.2-0.7,0.2l-13,0.1c-0.1,0-0.2,0-0.2-0.1  c0,0-0.1-0.1-0.1-0.2l0-4.4l14.1-0.1L36.3,35.7L36.3,35.7z"/><ellipse transform="matrix(1 -5.029477e-03 5.029477e-03 1 -0.1703 0.1271)" cx="25.2" cy="33.9" rx="1" ry="1"/><ellipse transform="matrix(1 -5.029630e-03 5.029630e-03 1 -0.17 0.1684)" cx="33.4" cy="33.9" rx="1" ry="1"/><path d="M27.9,22.6l2.6,0c0.4,0,0.6-0.3,0.6-0.6c0-0.4-0.3-0.6-0.6-0.6l-2.6,0c-0.4,0-0.6,0.3-0.6,0.6S27.6,22.6,27.9,22.6z"/><text x="0" y="115" fill="#000000" font-size="5px" font-weight="bold" font-family="'Helvetica Neue', Helvetica, Arial-Unicode, Arial, Sans-serif">Created by Made</text><text x="0" y="120" fill="#000000" font-size="5px" font-weight="bold" font-family="'Helvetica Neue', Helvetica, Arial-Unicode, Arial, Sans-serif">from the Noun Project</text></svg>