<?xml version="1.0" encoding="UTF-8"?>
<svg width="80px" height="49px" viewBox="0 0 80 49" version="1.1" xmlns="http://www.w3.org/2000/svg" xmlns:xlink="http://www.w3.org/1999/xlink">
    <!-- Generator: Sketch 46.1 (44463) - http://www.bohemiancoding.com/sketch -->
    <title>Group</title>
    <desc>Created with Sketch.</desc>
    <defs></defs>
    <g id="Page-1" stroke="none" stroke-width="1" fill="none" fill-rule="evenodd">
        <g id="bus_stop" transform="translate(0.000000, -8.000000)">
            <g id="Page-1" transform="translate(-11.000000, 6.000000)">
                <g id="Group" transform="translate(47.000000, 26.000000) rotate(-3.000000) translate(-47.000000, -26.000000) translate(2.000000, 3.000000)">
                    <g transform="translate(0.000000, -0.000000)" id="bus_stop">
                        <g transform="translate(-0.000000, -0.000000)">
                            <g id="Group" transform="translate(-0.000000, -0.000000)">
                                <path d="M9.7,37.6 L6.7,37.6 L6.7,8.8 L23.6,8.8 L23.6,29.3 L13.2,29.3 C11.8,29.3 10.6,30.5 10.6,31.9 L10.6,34.9 C10.6,35.3 10.7,35.7 10.9,36 C10.3,36.4 9.9,37 9.7,37.6 Z" id="Shape-path" fill-opacity="0.682376585" fill="#63E5C9"></path>
                                <path d="M47.9,29.3 L41.6,29.3 C40.2,29.3 39,30.5 39,31.9 L39,34.9 C39,35.3 39.1,35.7 39.3,36 C38.8,36.4 38.4,36.9 38.3,37.6 L35.5,37.6 C35.4,36.9 35,36.4 34.4,36 C34.6,35.7 34.7,35.3 34.7,34.9 L34.7,31.9 C34.7,30.5 33.5,29.3 32.1,29.3 L25.8,29.3 L25.8,8.8 L48,8.8 L48,29.3 L47.9,29.3 Z" id="Shape-path" fill-opacity="0.682376585" fill="#63E5C9"></path>
                                <path d="M66.8,37.6 L63.8,37.6 C63.7,36.9 63.3,36.4 62.7,36 C62.9,35.7 63,35.3 63,34.9 L63,31.9 C63,30.5 61.8,29.3 60.4,29.3 L49.9,29.3 L49.9,8.8 L66.8,8.8 L66.8,37.6 Z" id="Shape-path" fill-opacity="0.682376585" fill="#63E5C9"></path>
                                <path d="M18.3,16.9 C18.7,16.5 18.7,15.9 18.3,15.5 C17.9,15.1 17.3,15.1 16.9,15.5 L9.3,23 C8.9,23.4 8.9,24 9.3,24.4 C9.5,24.6 9.8,24.7 10,24.7 C10.2,24.7 10.5,24.6 10.7,24.4 L18.3,16.9 Z" id="Shape" fill="#FFFFFF" fill-rule="nonzero"></path>
                                <path d="M17.8,20.4 L13.7,24.5 C13.3,24.9 13.3,25.5 13.7,25.9 C13.9,26.1 14.2,26.2 14.4,26.2 C14.6,26.2 14.9,26.1 15.1,25.9 L19.2,21.8 C19.6,21.4 19.6,20.8 19.2,20.4 C18.8,20 18.2,20 17.8,20.4 Z" id="Shape" fill="#FFFFFF" fill-rule="nonzero"></path>
                                <path d="M31.2,24.4 C31.4,24.6 31.7,24.7 31.9,24.7 C32.1,24.7 32.4,24.6 32.6,24.4 L40.1,16.9 C40.5,16.5 40.5,15.9 40.1,15.5 C39.7,15.1 39.1,15.1 38.7,15.5 L31.2,23 C30.8,23.4 30.8,24.1 31.2,24.4 Z" id="Shape" fill="#FFFFFF" fill-rule="nonzero"></path>
                                <path d="M39.7,20.4 L35.6,24.5 C35.2,24.9 35.2,25.5 35.6,25.9 C35.8,26.1 36.1,26.2 36.3,26.2 C36.5,26.2 36.8,26.1 37,25.9 L41.1,21.8 C41.5,21.4 41.5,20.8 41.1,20.4 C40.7,20 40,20 39.7,20.4 Z" id="Shape" fill="#FFFFFF" fill-rule="nonzero"></path>
                                <path d="M53.1,24.4 C53.3,24.6 53.6,24.7 53.8,24.7 C54,24.7 54.3,24.6 54.5,24.4 L62,16.9 C62.4,16.5 62.4,15.9 62,15.5 C61.6,15.1 61,15.1 60.6,15.5 L53.1,23 C52.7,23.4 52.7,24.1 53.1,24.4 Z" id="Shape" fill="#FFFFFF" fill-rule="nonzero"></path>
                                <path d="M61.5,20.4 L57.4,24.5 C57,24.9 57,25.5 57.4,25.9 C57.6,26.1 57.9,26.2 58.1,26.2 C58.3,26.2 58.6,26.1 58.8,25.9 L62.9,21.8 C63.3,21.4 63.3,20.8 62.9,20.4 C62.5,20 61.9,20 61.5,20.4 Z" id="Shape" fill="#FFFFFF" fill-rule="nonzero"></path>
                                <path d="M73,16.2 C73,12.3 76.2,9.1 80.1,9.1 C84,9.1 87.2,12.3 87.2,16.2 C87.2,19.8 84.5,22.7 81.1,23.2 L81.1,19.2 L83.4,16.1 C83.7,15.7 83.6,15 83.2,14.7 C82.8,14.4 82.1,14.5 81.8,14.9 L81.1,15.9 L81.1,13.4 C81.1,12.8 80.7,12.4 80.1,12.4 C79.5,12.4 79.1,12.8 79.1,13.4 L79.1,18.1 L78.6,17.6 C78.2,17.2 77.6,17.2 77.2,17.6 C76.8,18 76.8,18.6 77.2,19 L79.1,20.9 L79.1,23.2 C75.6,22.7 73,19.7 73,16.2 Z" id="Shape-path" fill-opacity="0.750651042" fill="#309E0C"></path>
                                <path d="M2.9,4.7 C2.9,3.5 3.9,2.6 5,2.6 L68.6,2.6 C69.8,2.6 70.7,3.6 70.7,4.7 C70.7,5.8 69.7,6.8 68.6,6.8 L5,6.8 C3.8,6.8 2.9,5.9 2.9,4.7 Z" id="Shape-path" fill="#FF5E5B"></path>
                                <path d="M12.3,37.6 L13.2,37.6 L32,37.6 L32.9,37.6 C33.2,37.6 33.5,37.9 33.5,38.3 C33.5,38.6 33.2,38.9 32.9,38.9 L12.3,38.9 C12,38.9 11.7,38.6 11.7,38.2 C11.7,37.8 12,37.6 12.3,37.6 Z" id="Shape-path" fill-opacity="0.420544611" fill="#4A4A4A"></path>
                                <path d="M41,34.9 L41,31.9 C41,31.6 41.3,31.3 41.6,31.3 L60.4,31.3 C60.7,31.3 61,31.6 61,31.9 L61,34.9 C61,35.2 60.7,35.5 60.4,35.5 L41.6,35.5 C41.2,35.6 41,35.3 41,34.9 Z" id="Shape-path" fill-opacity="0.420544611" fill="#4A4A4A"></path>
                                <path d="M61.3,37.6 C61.6,37.6 61.9,37.9 61.9,38.3 C61.9,38.6 61.6,38.9 61.3,38.9 L40.7,38.9 C40.4,38.9 40.1,38.6 40.1,38.2 C40.1,37.9 40.4,37.6 40.7,37.6 L41.6,37.6 L60.4,37.6 L61.3,37.6 Z" id="Shape-path" fill-opacity="0.420544611" fill="#4A4A4A"></path>
                                <path d="M12.5,34.9 L12.5,31.9 C12.5,31.6 12.8,31.3 13.1,31.3 L32,31.3 C32.3,31.3 32.6,31.6 32.6,31.9 L32.6,34.9 C32.6,35.2 32.3,35.5 32,35.5 L13.2,35.5 C12.8,35.6 12.5,35.3 12.5,34.9 Z" id="Shape-path" fill-opacity="0.420544611" fill="#4A4A4A"></path>
                                <path d="M89.1,16.2 C89.1,11.2 85,7.1 80,7.1 C75,7.1 70.9,11.2 70.9,16.2 C70.9,20.9 74.4,24.7 79,25.2 L79,43.4 L68.8,43.4 L68.8,8.8 C71,8.7 72.7,6.9 72.7,4.7 C72.7,2.4 70.8,0.6 68.6,0.6 L5,0.6 C2.7,0.6 0.9,2.5 0.9,4.7 C0.9,6.9 2.6,8.7 4.8,8.8 L4.8,43.4 L1.9,43.4 C1.3,43.4 0.9,43.8 0.9,44.4 C0.9,45 1.3,45.4 1.9,45.4 L85,45.4 C85.6,45.4 86,45 86,44.4 C86,43.8 85.6,43.4 85,43.4 L81.1,43.4 L81.1,25.2 C85.6,24.7 89.1,20.9 89.1,16.2 Z M9.7,37.6 L6.7,37.6 L6.7,8.8 L23.6,8.8 L23.6,29.3 L13.2,29.3 C11.8,29.3 10.6,30.5 10.6,31.9 L10.6,34.9 C10.6,35.3 10.7,35.7 10.9,36 C10.3,36.4 9.9,37 9.7,37.6 Z M66.8,37.6 L63.8,37.6 C63.7,36.9 63.3,36.4 62.7,36 C62.9,35.7 63,35.3 63,34.9 L63,31.9 C63,30.5 61.8,29.3 60.4,29.3 L49.9,29.3 L49.9,8.8 L66.8,8.8 L66.8,37.6 Z M61.3,37.6 C61.6,37.6 61.9,37.9 61.9,38.3 C61.9,38.6 61.6,38.9 61.3,38.9 L40.7,38.9 C40.4,38.9 40.1,38.6 40.1,38.2 C40.1,37.9 40.4,37.6 40.7,37.6 L41.6,37.6 L60.4,37.6 L61.3,37.6 Z M41,34.9 L41,31.9 C41,31.6 41.3,31.3 41.6,31.3 L60.4,31.3 C60.7,31.3 61,31.6 61,31.9 L61,34.9 C61,35.2 60.7,35.5 60.4,35.5 L41.6,35.5 C41.2,35.6 41,35.3 41,34.9 Z M47.9,29.3 L41.6,29.3 C40.2,29.3 39,30.5 39,31.9 L39,34.9 C39,35.3 39.1,35.7 39.3,36 C38.8,36.4 38.4,36.9 38.3,37.6 L35.5,37.6 C35.4,36.9 35,36.4 34.4,36 C34.6,35.7 34.7,35.3 34.7,34.9 L34.7,31.9 C34.7,30.5 33.5,29.3 32.1,29.3 L25.8,29.3 L25.8,8.8 L48,8.8 L48,29.3 L47.9,29.3 Z M12.5,34.9 L12.5,31.9 C12.5,31.6 12.8,31.3 13.1,31.3 L32,31.3 C32.3,31.3 32.6,31.6 32.6,31.9 L32.6,34.9 C32.6,35.2 32.3,35.5 32,35.5 L13.2,35.5 C12.8,35.6 12.5,35.3 12.5,34.9 Z M12.3,37.6 L13.2,37.6 L32,37.6 L32.9,37.6 C33.2,37.6 33.5,37.9 33.5,38.3 C33.5,38.6 33.2,38.9 32.9,38.9 L12.3,38.9 C12,38.9 11.7,38.6 11.7,38.2 C11.7,37.8 12,37.6 12.3,37.6 Z M14.1,40.9 L15.3,40.9 L15.3,43.4 L14.1,43.4 L14.1,40.9 Z M17.3,40.9 L27.1,40.9 L27.1,43.4 L17.3,43.4 L17.3,40.9 Z M29.1,40.9 L30.3,40.9 L30.3,43.4 L29.1,43.4 L29.1,40.9 Z M32.3,40.9 L32.8,40.9 C33.7,40.9 34.5,40.4 35,39.7 L38.5,39.7 C38.9,40.4 39.7,40.9 40.5,40.9 L40.5,43.5 L32.2,43.5 L32.2,40.9 L32.3,40.9 Z M42.6,40.9 L43.8,40.9 L43.8,43.4 L42.6,43.4 L42.6,40.9 Z M45.7,40.9 L55.5,40.9 L55.5,43.4 L45.7,43.4 L45.7,40.9 Z M57.5,40.9 L58.7,40.9 L58.7,43.4 L57.5,43.4 L57.5,40.9 Z M60.7,40.9 L61.2,40.9 C62.1,40.9 62.9,40.4 63.4,39.7 L63.4,39.7 L66.7,39.7 L66.7,43.5 L60.6,43.5 L60.6,40.9 L60.7,40.9 Z M2.9,4.7 C2.9,3.5 3.9,2.6 5,2.6 L68.6,2.6 C69.8,2.6 70.7,3.6 70.7,4.7 C70.7,5.8 69.7,6.8 68.6,6.8 L5,6.8 C3.8,6.8 2.9,5.9 2.9,4.7 Z M6.8,39.6 L10.1,39.6 C10.5,40.3 11.3,40.8 12.1,40.8 L12.1,43.4 L6.7,43.4 L6.7,39.6 L6.8,39.6 Z M73,16.2 C73,12.3 76.2,9.1 80.1,9.1 C84,9.1 87.2,12.3 87.2,16.2 C87.2,19.8 84.5,22.7 81.1,23.2 L81.1,19.2 L83.4,16.1 C83.7,15.7 83.6,15 83.2,14.7 C82.8,14.4 82.1,14.5 81.8,14.9 L81.1,15.9 L81.1,13.4 C81.1,12.8 80.7,12.4 80.1,12.4 C79.5,12.4 79.1,12.8 79.1,13.4 L79.1,18.1 L78.6,17.6 C78.2,17.2 77.6,17.2 77.2,17.6 C76.8,18 76.8,18.6 77.2,19 L79.1,20.9 L79.1,23.2 C75.6,22.7 73,19.7 73,16.2 Z" id="Shape" fill="#000000" fill-rule="nonzero"></path>
                            </g>
                        </g>
                    </g>
                </g>
            </g>
        </g>
    </g>
</svg>