<?xml version="1.0" encoding="UTF-8"?>
<svg width="123px" height="100px" viewBox="0 0 123 100" version="1.1" xmlns="http://www.w3.org/2000/svg" xmlns:xlink="http://www.w3.org/1999/xlink">
    <!-- Generator: Sketch 46.1 (44463) - http://www.bohemiancoding.com/sketch -->
    <title>route</title>
    <desc>Created with Sketch.</desc>
    <defs></defs>
    <g id="Page-1" stroke="none" stroke-width="1" fill="none" fill-rule="evenodd">
        <g id="Group">
            <g id="route">
                <g transform="translate(0.000000, 0.000000)">
                    <path d="M3.999998,59.99998 C3.999998,61.70838 4.597698,64.81128 5.156198,66.31248 C9.414498,75.31598 13.715298,84.31568 17.999998,93.31248 C22.196502,84.27518 26.683302,75.16418 30.843802,66.31248 C31.401202,64.80718 32.000202,61.70488 32.000202,59.99998 C32.000202,51.94138 25.828602,45.99998 18.031398,45.99998 C10.234198,45.99998 3.999998,51.94718 3.999998,59.99998 Z" id="Path" fill="#0C78FF"></path>
                    <path d="M17.999998,50.99998 C22.946802,50.99998 27.000002,55.05308 27.000002,59.99998 C27.000002,64.94678 22.946802,68.99998 17.999998,68.99998 C13.053098,68.99998 8.999998,64.94678 8.999998,59.99998 C8.999998,55.05308 13.053098,50.99998 17.999998,50.99998 Z" id="Path" fill="#FFFFFF"></path>
                    <path d="M106.9688,3.99998 C100.2546,3.99998 95,8.93664 95,15.99998 C95,17.47888 95.5449,20.49652 96,21.74998 C99.6437,29.58672 103.3299,37.41982 107,45.25002 C110.5832,37.38072 114.293,29.77129 118,21.74998 C118.456,20.50087 119,17.48219 119,15.99998 C119,8.94241 113.6826,3.99998 106.9688,3.99998 Z" id="Path" fill="#FF5E5B"></path>
                    <path d="M106.9998,12.99998 C105.3193,12.99998 103.9998,14.31948 103.9998,15.99998 C103.9998,17.68048 105.3193,18.99998 106.9998,18.99998 C108.6802,18.99998 109.9998,17.68043 109.9998,15.99998 C109.9998,14.31953 108.6802,12.99998 106.9998,12.99998 Z" id="Path" fill="#FFFFFF"></path>
                    <path d="M106.9688,-2e-05 C115.7198,-2e-05 123,6.87155 123,15.99998 C123,18.22875 122.5025,21.12261 121.75,23.15623 C117.4595,32.37833 113.1264,41.61902 108.8125,50.84372 C108.4927,51.52892 107.7562,52.00002 107,52.00002 L80,52.00002 C74.9794,52.00002 71,55.97942 71,61.00002 C71,66.02062 74.9794,70.00002 80,70.00002 L92,70.00002 C100.2755,70.00002 107,76.72462 107,85.00002 C107,93.27552 100.2755,100.00002 92,100.00002 L17.999996,100.00002 C17.243796,100.00002 16.507296,99.52892 16.187496,98.84372 C11.319096,88.45652 6.231696,78.14342 1.406196,67.75002 C0.584696,65.56402 -2.00000001e-06,62.46702 -2.00000001e-06,60.00002 C-2.00000001e-06,49.84352 8.153496,42.00002 18.031196,42.00002 C27.9091,42.00002 36,49.84942 36,60.00002 C36,62.46872 35.409,65.56932 34.5938,67.75002 C30.1382,77.16202 25.6376,86.58412 21.1562,96.00002 L92,96.00002 C98.1287,96.00002 103,91.12872 103,85.00002 C103,78.87142 98.1287,74.00002 92,74.00002 L80,74.00002 C72.8326,74.00002 67,68.16742 67,61.00002 C67,53.83262 72.8326,48.00002 80,48.00002 L103.8438,48.00002 C99.9899,39.71362 96.037,31.45637 92.25,23.15623 C91.5037,21.1282 91,18.23047 91,15.99998 C91,6.87732 98.2175,-2e-05 106.9688,-2e-05 Z M106.9688,3.99998 C100.2546,3.99998 95,8.93664 95,15.99998 C95,17.47888 95.5449,20.49652 96,21.74998 C99.6437,29.58672 103.3299,37.41982 107,45.25002 C110.5832,37.38072 114.293,29.77129 118,21.74998 C118.456,20.50087 119,17.48219 119,15.99998 C119,8.94241 113.6826,3.99998 106.9688,3.99998 Z M106.9998,8.99998 C110.842,8.99998 113.9998,12.15763 113.9998,15.99998 C113.9998,19.84233 110.842,22.99998 106.9998,22.99998 C103.1575,22.99998 99.9998,19.84228 99.9998,15.99998 C99.9998,12.15768 103.1575,8.99998 106.9998,8.99998 Z M106.9998,12.99998 C105.3193,12.99998 103.9998,14.31948 103.9998,15.99998 C103.9998,17.68048 105.3193,18.99998 106.9998,18.99998 C108.6802,18.99998 109.9998,17.68043 109.9998,15.99998 C109.9998,14.31953 108.6802,12.99998 106.9998,12.99998 Z M3.999998,59.99998 C3.999998,61.70838 4.597698,64.81128 5.156198,66.31248 C9.414498,75.31598 13.715298,84.31568 17.999998,93.31248 C22.196502,84.27518 26.683302,75.16418 30.843802,66.31248 C31.401202,64.80718 32.000202,61.70488 32.000202,59.99998 C32.000202,51.94138 25.828602,45.99998 18.031398,45.99998 C10.234198,45.99998 3.999998,51.94718 3.999998,59.99998 Z M17.999998,50.99998 C22.946802,50.99998 27.000002,55.05308 27.000002,59.99998 C27.000002,64.94678 22.946802,68.99998 17.999998,68.99998 C13.053098,68.99998 8.999998,64.94678 8.999998,59.99998 C8.999998,55.05308 13.053098,50.99998 17.999998,50.99998 Z M17.999998,54.99998 C15.214898,54.99998 12.999998,57.21488 12.999998,59.99998 C12.999998,62.78498 15.214898,64.99998 17.999998,64.99998 C20.785002,64.99998 23.000002,62.78488 23.000002,59.99998 C23.000002,57.21488 20.785002,54.99998 17.999998,54.99998 Z" id="Shape" fill="#000000" fill-rule="nonzero"></path>
                </g>
            </g>
        </g>
    </g>
</svg>